<?xml version="1.0" encoding="UTF-8"?>
<svg id="Layer_2" data-name="Layer 2" xmlns="http://www.w3.org/2000/svg" viewBox="0 0 365.58 333.64">
  <defs>
    <style>
      .cls-1 {
        fill: #242324;
      }

      .cls-1, .cls-2 {
        stroke-width: 0px;
      }

      .cls-2 {
        fill: #fff;
      }
    </style>
  </defs>
  <g id="Layer_2-2" data-name="Layer 2">
    <g id="Layer_1-2" data-name="Layer 1-2">
      <path class="cls-2" d="m89.83,277.24c-23.62-17.23-40.9-39.44-51.9-66.48-4.54-11.17-7.59-22.8-9.35-34.78-1.62-11.03-2.2-22.11-1.36-33.18,1.53-20.13,6.54-39.4,15.69-57.49C59.37,52.79,84.48,29.28,117.47,14.04c11.27-5.2,23.02-8.99,35.21-11.23,13.36-2.46,26.83-3.37,40.43-2.48,15.71,1.03,30.97,4.13,45.7,9.67,24.47,9.2,45.35,23.64,62.55,43.3,16.41,18.75,27.46,40.35,33.3,64.55,3.11,12.9,4.73,26.02,4.3,39.33-.69,21.12-5.15,41.38-14.01,60.63-10.84,23.57-26.96,42.85-47.46,58.6-.5.38-1.03.73-1.54,1.09-4.34.04-8.69.09-13.04.13.5-.38.98-.79,1.5-1.14,13.5-8.98,25.59-19.57,35.62-32.33,19.55-24.87,29.7-53.26,31.24-84.78.47-9.57-.02-19.12-1.54-28.59-2.21-13.79-6.4-26.97-12.47-39.55-8.24-17.08-19.24-32.11-33.32-44.85-9.72-8.79-20.4-16.11-32.05-22.16-12.54-6.5-25.85-10.69-39.5-13.78-6.51-1.47-13.3-1.96-19.99-2.29-14.53-.72-29,.22-43.22,3.46-35.93,8.2-64.98,27.15-86.84,56.76-17.42,23.6-26.74,50.26-27.83,79.64-.51,13.61.95,27.08,4.24,40.28,9.38,37.65,30.73,66.81,62.99,88.16.62.41,1.16.94,1.73,1.41-4.54-.21-9.08-.42-13.63-.63h0Z"/>
      <path class="cls-1" d="m89.83,277.24c4.54.21,9.08.42,13.63.63.67.16,1.37.25,2.02.48,3.2,1.11,6.59,1.9,8.55,5.08-.04.57-.01,1.14-.12,1.7-.72,3.73-.42,4.31,3.04,5.6.59.22,1.2.49,1.81.52,5.02.25,10.04.45,15.05.67,4.18-.05,8.37-.14,12.55-.14,28.66.05,57.32.12,85.98.19,1.95.02,3.91.19,5.85.03,3.4-.27,6.8-.62,10.17-1.17,2.53-.42,3.57-2.03,3.45-4.65-.04-.82-.1-1.63-.15-2.45,1.45-1.31,2.71-2.97,4.39-3.83,2.11-1.09,4.56-1.54,6.87-2.26,4.35-.04,8.69-.09,13.04-.13,8.86.84,17.19,3.69,25.5,6.65,6.92,2.47,13.76,5.24,20.83,7.18,8.16,2.23,16.48,2.36,24.59-.81,4.65-1.82,8.39-4.99,12.23-8.04.09.09.19.16.3.22-2.85,8.41-6.84,16.22-12.58,23.31,5.72,3.3,11.65,5.67,18.75,6.37-2.51,1.97-4.65,3.9-7.03,5.45-9.41,6.13-19.76,8.93-31.01,8.63-11-.3-21.1-3.88-31.1-8-6.74-2.78-13.41-5.74-20.62-7.16-1.34-.26-2.7-.45-4.18-.7-.4,3.83-.87,7.46-1.11,11.11-.16,2.46-1.41,4.2-3.48,4.99-3.86,1.47-7.79,2.93-11.82,3.73-12.6,2.5-25.41,2.92-38.2,3.05-22.39.22-44.79.17-67.18.01-8.55-.06-17.12-.46-25.65-1.16-7.65-.63-15.34-1.45-22.62-4.2-4.37-1.65-6.69-3.21-6.73-9.03-.02-2.77-.51-5.54-.81-8.47-4.47.1-8.84,1.03-13,2.55-7.55,2.75-14.98,5.84-22.48,8.74-8.9,3.44-18.14,5.1-27.65,4.33-10.35-.84-19.74-4.4-27.74-11.2-.94-.8-1.9-1.59-3.17-2.66,6.89-.63,12.86-2.75,18.62-6.27-5.75-7.08-9.43-15.23-12.55-24.19,1.14.9,1.97,1.57,2.81,2.22.9.7,1.81,1.39,2.72,2.07,7.19,5.35,15.23,7.2,24.12,6.29,9.04-.93,17.29-4.35,25.62-7.52,8.19-3.11,16.44-5.95,25.14-7.27,1.12-.17,2.24-.33,3.36-.5h-.01Zm-78.6,11.33c-.1-.07-.21-.15-.31-.22l.07.44c2.4,6.51,5.97,12.33,10.61,17.57-5.05,3.67-10.55,5.99-16.68,7.45.71.6,1.17,1.02,1.67,1.4,8.22,6.17,17.62,8.84,27.75,9.13,9.7.28,18.84-2.27,27.74-5.89,7.85-3.19,15.52-6.89,23.87-8.76,7.96-1.78,15.75-2.27,22.97,2.7.03-.28.08-.46.06-.63-.74-9.53.04-18.98,1.36-28.42.06-.45-.51-1.24-.98-1.48-3.79-1.89-7.9-2.57-12.09-2.74-8.9-.36-17.44,1.57-25.78,4.44-8.14,2.8-16.17,5.92-24.34,8.62-7.59,2.51-15.39,3.39-23.37,1.82-4.6-.9-8.64-3.02-12.55-5.45v.02Zm100.37,2.06c-.22,3.57-.59,7.03-.61,10.49-.03,4.56.19,9.13.36,13.69.08,2.28-1.01,3.84-3.02,4.54-1.52.53-3.2.64-4.82.83-1.25.14-2.57-.07-3.78.23-.79.2-1.88.95-2,1.61-.13.67.58,1.82,1.24,2.26,1.29.86,2.77,1.49,4.24,2,8.68,2.98,17.77,3.59,26.81,4.1,11.01.62,22.05,1.02,33.08,1.03,20.74.01,41.47-.29,62.21-.54,10.52-.13,21-.83,31.29-3.12,3.39-.76,6.66-2.14,9.91-3.44.66-.26,1.32-1.48,1.28-2.22-.03-.56-1.13-1.35-1.86-1.5-1.53-.32-3.13-.32-4.7-.38-5.6-.22-7.31-2.34-7.05-7.83.29-5.88.17-11.79.16-17.68,0-1.27-.27-2.55-.43-3.91-3.83,2.41-7.95,3.11-12.12,3.14-14.21.1-28.42.06-42.62.06-25.12,0-50.24,0-75.36-.05-4.25-.01-8.39-.78-12.21-3.31h0Zm243.43-2.16c-2.01,1.12-3.86,2.32-5.86,3.21-10.51,4.68-21.17,3.98-31.77.44-8.46-2.82-16.79-6.05-25.23-8.96-7.26-2.51-14.73-4.04-22.44-4.01-4.54.02-9.02.62-13.21,2.59-1.02.48-1.4,1.03-1.17,2.18,1.7,8.57,1.57,17.25,1.4,25.93-.01.75-.15,1.51-.25,2.54,4.85-3.09,10.09-4.61,14.59-3.91,3.91.61,7.88,1.27,11.6,2.56,7.18,2.48,14.19,5.44,21.29,8.14,12.39,4.71,25.03,6.94,38.18,3.66,6.78-1.69,13.01-4.5,18.63-9.09-6.08-1.48-11.64-3.61-16.48-7.52,4.45-5.38,8.3-11.15,10.73-17.76h-.01Z"/>
      <path class="cls-1" d="m359.1,282.48c.11-.08.21-.16.32-.24,0,.15-.02.31-.02.46-.11-.06-.21-.14-.3-.22h0Z"/>
      <path class="cls-2" d="m114.02,283.43c5.87,2.62,11.74,5.24,17.63,7.83.68.3,1.44.44,2.16.65-5.02-.22-10.04-.42-15.06-.67-.61-.03-1.22-.3-1.81-.52-3.46-1.28-3.77-1.87-3.04-5.6.11-.55.08-1.13.12-1.7h0Z"/>
      <path class="cls-2" d="m232.34,291.96l19.32-8.25c.05.82.11,1.63.15,2.45.12,2.62-.92,4.23-3.45,4.65-3.36.55-6.77.9-10.17,1.17-1.94.16-3.9,0-5.85-.03h0Z"/>
      <path class="cls-2" d="m183.25,258.57c-54.91.47-105.41-43.2-105.82-104.35-.38-57,45.84-104.59,105.33-104.94,56.27-.34,104.78,44.62,105.64,103.47.85,57.99-48.48,106.77-105.16,105.82h.01Zm-.75-201.43c-7.83-.11-15.91.91-23.79,3.09-33.23,9.17-56.17,29.84-68.26,62.13-5.36,14.32-6.38,29.25-4.34,44.41.98,7.29,2.66,14.42,5.26,21.26,6.34,16.7,16.61,30.64,30.62,41.73,15.25,12.07,32.68,18.81,52,20.71,8.74.86,17.45.44,26.12-1.06,19.72-3.41,36.71-12.17,50.96-26.14,18.78-18.42,28.59-40.86,29.58-67.13.3-8.06-.44-16.09-2.39-23.9-7.71-30.87-26.11-53.05-54.95-66.43-12.78-5.93-26.31-8.79-40.8-8.66h0Z"/>
      <path class="cls-2" d="m305.89,90.3c.03,3.41-.94,5.7-2.83,7.54-3.12,3.05-6.66,5.12-11.29,4.74-5.18-.42-10.85-9.05-7.18-15.1,2.31-3.82,5.7-6.3,10.2-6.75,6.19-.62,11.14,4.08,11.09,9.58h0Zm-9.7-5.01c-2.99.52-5.99,2-7.82,5.16-1.07,1.85-.64,3.8.61,5.51,1.15,1.58,2.76,2.32,4.64,1.84,2.88-.73,5.37-2.21,7.19-4.62,1.19-1.58,1.12-3.33.26-5.01-.88-1.74-2.27-2.84-4.88-2.88Z"/>
      <path class="cls-2" d="m121.11,46.04c2.68,1.86,5.38,3.73,8.33,5.77-1.44.9-2.71,1.78-4.07,2.47-.33.17-1.04-.17-1.46-.46-2.18-1.51-4.32-3.07-6.51-4.64-.87.55-1.72,1.09-2.71,1.72,1.42,2.5,2.84,5,4.29,7.56-1.28.68-2.5,1.33-3.93,2.09-3.65-6.27-7.29-12.53-11.05-19,3.74-2.12,7.1-4.97,11.4-6.01,1.96-.48,3.6.45,4.87,1.92,2.27,2.63,2.52,5.31.84,8.57h0Zm-8.33,1.69c1.38-.86,2.64-1.57,3.81-2.41,1.44-1.03,1.49-2.39.59-3.81-.84-1.33-1.97-1.93-3.51-1.09-1.25.68-2.49,1.38-3.81,2.11,1,1.77,1.91,3.4,2.93,5.19h0Z"/>
      <path class="cls-2" d="m269.97,73.24c.03-5.42,5.12-10.55,11.26-11.35,4.28-.55,9.17,3.42,10.36,8.55.74,3.17-.23,6.03-2.24,8.48-2.59,3.17-5.89,5.3-10.11,5.02-5.14-.34-9.31-5.34-9.28-10.7h0Zm3.98.57c.27,3.76,3.81,6.64,6.91,5.22,1.95-.89,3.78-2.31,5.25-3.88,2.02-2.17,1.91-4.41.21-6.49-1.83-2.25-4.06-2.76-6.72-1.25-1.46.83-2.85,1.9-3.99,3.13-.8.86-1.13,2.16-1.67,3.27h.01Z"/>
      <path class="cls-2" d="m68.63,125.61c-6.85-1.99-13.43-3.9-20.26-5.89,1.45-4.11,2.05-8.48,4.74-12.03,1.89-2.5,4.52-3.64,7.65-3.34,6.52.63,10.42,3.62,11.09,9.09.14,1.16.02,2.43-.32,3.55-.84,2.83-1.88,5.6-2.9,8.61h0Zm-2.22-5.24c1.1-2.94,2.76-5.81.31-8.49-2.09-2.29-5.05-3.28-8.11-2.66-3.76.77-4.15,4.25-5.2,7.33,4.38,1.29,8.59,2.53,13,3.83h0Z"/>
      <path class="cls-2" d="m266.64,61.23c-2.29-1.76-4.44-3.42-6.7-5.16-1.73,2.31-3.45,4.62-5.28,7.06-1.18-.9-2.31-1.76-3.56-2.72,4.25-5.69,8.44-11.3,12.65-16.94,1.25.88,2.42,1.71,3.66,2.58-1.69,2.32-3.32,4.56-5.03,6.91,2.18,1.68,4.32,3.33,6.61,5.09,1.59-2.09,3.14-4.14,4.85-6.41,1.15.81,2.31,1.61,3.62,2.53-4.26,5.79-8.43,11.47-12.72,17.29-1.22-.92-2.36-1.78-3.59-2.71,1.85-2.54,3.64-4.98,5.5-7.54v.02Z"/>
      <path class="cls-2" d="m83.92,91.78c-.75,1.45-1.49,2.89-2.26,4.38-1.19-.2-2.35-.24-3.4-.61-1.59-.58-2.39-.14-2.95,1.42-.53,1.47-1.34,2.84-2.07,4.34,1.27,1.16,2.56,2.34,3.9,3.57-.92,1.67-1.7,3.07-2.57,4.65-5.42-5.69-10.69-11.24-16.15-16.97.81-1.46,1.6-3.02,2.54-4.48.2-.32.98-.47,1.43-.38,7.12,1.32,14.23,2.7,21.52,4.09h.01Zm-18.74,1.09c1.81,1.83,3.57,3.61,5.31,5.36.6-1.24,1.26-2.59,1.93-3.98-2.53-.48-4.92-.94-7.25-1.38h.01Z"/>
      <path class="cls-2" d="m96.43,67.45c1.03-1.11,1.93-2.08,2.92-3.15,1.78,1.29,3.61,1.8,5.56.44,1.48-1.04,1.9-2.47,1.11-3.96-.84-1.59-2.1-1.54-3.56-.96-1.75.7-3.57,1.25-5.31,1.97-3.82,1.56-8.31-2.38-7.16-7.11.88-3.64,5.13-7.02,8.87-6.73,1.48.12,2.9.93,4.79,1.58-1.4,1.49-2.41,2.58-3.4,3.64-2.3-1.42-4.28-1.14-5.47.83-.33.55-.49,1.57-.2,2.04.35.56,1.25.96,1.95,1.05s1.47-.26,2.19-.5c1.19-.41,2.35-.93,3.54-1.32,6.22-2.08,9.53,3.03,8.6,7.6-.73,3.61-3.56,5.55-6.85,6.76-2.92,1.08-5.28-.05-7.57-2.18h-.01Z"/>
      <path class="cls-2" d="m146.92,38c2.23,2.46,3.58,2.93,5.7,2.03,1.32-.56,2.26-1.49,1.98-3.03-.28-1.51-1.44-1.86-2.84-1.94-2.2-.14-4.4-.45-6.6-.66-4.55-.43-6.1-6.28-3.05-9.29,2.64-2.61,5.85-4.01,9.65-2.97,1.98.54,3.41,1.81,4.19,3.96-1.42.6-2.78,1.18-4.11,1.75-2.03-2.09-3.54-2.45-5.31-1.12-.51.38-.98,1.26-.9,1.84.07.57.8,1.4,1.35,1.5,2.08.38,4.2.61,6.31.69,4.73.19,7.64,4.71,5.59,9.05-1.66,3.5-4.98,4.51-8.5,4.76-3.22.23-5.78-1.56-7.22-4.8,1.22-.57,2.45-1.14,3.77-1.75v-.02Z"/>
      <path class="cls-2" d="m216.23,37.92c1.82.39,3.22.69,4.58.98.35,3.12,1.47,4.41,4.09,4.71,1.29.15,2.34-.24,2.97-1.5.64-1.27.21-2.21-.79-2.98-1.25-.96-2.56-1.85-3.83-2.8-3-2.26-3.84-4.6-2.66-7.33,1.22-2.83,4.17-4.29,7.56-3.58,1.4.29,2.84.7,4.1,1.37,2.71,1.45,3.69,3.89,3.06,7.16-.97-.23-1.98-.36-2.89-.74-.59-.25-1.28-.78-1.47-1.34-.62-1.89-1.92-2.68-3.74-2.47-.73.09-1.76.7-1.97,1.31-.21.6.22,1.73.75,2.23,1.05.98,2.37,1.67,3.55,2.51,3.38,2.4,4.19,4.48,3.02,7.69-1.15,3.16-3.83,4.77-7.5,4.51-4.01-.29-7.41-2.69-8.38-6.06-.31-1.06-.29-2.21-.46-3.66h.01Z"/>
      <path class="cls-2" d="m74.16,68.91c1.13-1.28,2.12-2.4,3.33-3.78,4.67,6.37,9.2,12.57,13.69,18.7-.17.35-.22.55-.34.69-4.18,4.7-2.18,4.56-8.26,2.36-5.56-2.01-11.05-4.18-16.83-6.38.9-1.54,1.7-2.93,2.59-4.45,5.46,2.21,10.78,4.37,16.18,6.57-3.48-4.6-6.88-9.11-10.35-13.7h-.01Z"/>
      <path class="cls-2" d="m199.91,25.62c-1.37,0-2.56.06-3.75-.04-.38-.03-.86-.42-1.07-.77-1.48-2.47-3.03-3.38-5.35-3.01-2.63.42-4.02,2.26-4.37,4.62-.3,2.02-.17,4.17.19,6.19.43,2.39,2.2,3.71,4.5,3.93,2.16.2,3.75-.85,4.84-3.2.11-.23.21-.45.38-.81.76.15,1.54.3,2.32.45.73.14,1.46.26,2.19.4-1.14,4.63-4.41,7.08-9.29,7.07-4.88,0-8.85-2.99-9.88-7.54-.87-3.83-.68-7.59,1.67-10.9,1.58-2.23,3.48-4.07,6.64-3.75,1.75.18,3.64-.34,5.28.12,3.31.92,5.3,3.26,5.7,7.24Z"/>
      <path class="cls-2" d="m248.63,50.12c1.31,1.05,2.43,1.96,3.62,2.92-2.78,2.62-5.71,4.23-9.52,3-3.94-1.28-6.67-3.72-7.55-7.94-.86-4.11,2.41-10.64,6.49-12.87,3.94-2.15,9.09-1.2,12.5,2.31,2.27,2.34,2.85,5.28,1.64,8.45-.79-.39-1.57-.81-2.37-1.15-1.03-.44-1.62-.92-1.61-2.31,0-3.28-3.92-5.38-7.01-3.93-2.63,1.24-5.3,5.91-5.04,8.84.19,2.09,1.33,3.49,3.2,4.35,2.29,1.05,4.02.04,5.66-1.67h-.01Z"/>
      <path class="cls-2" d="m161.32,19.48c4.61-.42,8.96-.81,13.57-1.23.21,1.22.41,2.42.64,3.76-3.12.33-6.11.65-9.17.97.1,1.61.2,3.11.32,4.91,2.77-.24,5.44-.48,8.35-.74.11,1.18.21,2.34.33,3.65-2.74.31-5.34.6-8.16.92.18,1.71.36,3.32.55,5.06,3.14-.26,6.19-.51,9.33-.76.17,1.31.32,2.54.49,3.87-4.68.44-9.24.87-13.93,1.32-.78-7.29-1.54-14.41-2.33-21.73h0Z"/>
      <path class="cls-2" d="m296.51,111.04c1.19,2.77,2.31,5.36,3.48,8.08-1.22.54-2.36,1.04-3.69,1.62-1.78-4.12-3.56-8.25-5.43-12.59,6.63-2.64,13.2-5.25,19.86-7.9.67,1.5,1.28,2.87,1.98,4.45-5.33,2.08-10.65,4.16-16.2,6.34Z"/>
      <path class="cls-2" d="m135.87,49.12c-1.41.68-2.64,1.27-4.05,1.94-.74-1.58-1.48-3.15-2.26-4.81,1.36-.62,2.66-1.22,4.13-1.9.71,1.57,1.39,3.05,2.17,4.76h0Z"/>
      <path class="cls-2" d="m201.73,41.07c.3-1.66.57-3.19.87-4.87,1.46.25,2.8.49,4.32.75-.31,1.69-.61,3.26-.92,4.93-1.46-.28-2.8-.53-4.27-.81Z"/>
      <path class="cls-1" d="m133.08,300.97c.26-.07.32-.1.37-.1,2.07.07,4.66-.57,6.07.44,1.3.92,1.34,3.62,1.93,5.54.49,1.56.99,3.11,1.47,4.67.45,1.47.88,2.95,1.42,4.75,1.62-5.29,3.16-10.3,4.7-15.31h7.03v21.14h-4.34v-14.95c-.12-.02-.23-.04-.35-.06-1.68,5.02-3.35,10.04-5.01,15-2.59.17-4.26-.92-5.03-3.29-1.27-3.92-2.56-7.83-4.06-11.69v15h-4.21v-21.14Z"/>
      <path class="cls-1" d="m186.42,308.59c0,4.52,0,9.02,0,13.52h-4.24v-21.33c1.43,0,2.93-.09,4.41.05.48.05,1.01.63,1.32,1.1,2.47,3.74,4.89,7.5,7.33,11.26.15.23.33.45.77,1.05v-13.3h4.47v21.23c-1.31,0-2.52.09-3.7-.04-.5-.06-1.11-.47-1.4-.9-2.89-4.28-5.73-8.61-8.58-12.92l-.38-.63v.91h0Z"/>
      <path class="cls-1" d="m205.41,322.15v-20.94c3.68,0,7.31-.34,10.85.08,4.77.57,7.66,4.77,7.65,10.21-.02,6.68-3.87,10.58-10.55,10.65-2.59.03-5.19,0-7.94,0h0Zm4.6-3.89c2.91-.03,6.11.82,7.79-2.2,1.6-2.88,1.55-6.18-.21-9.03-1.78-2.88-4.84-1.94-7.58-2.04v13.27h0Z"/>
      <path class="cls-1" d="m179.42,322.09c-3.25.17-5.38-1.2-6.39-4.13-.08-.22-.12-.46-.19-.77h-7.34c-.6,1.67-1.19,3.3-1.76,4.89h-4.92c2.47-6.84,4.88-13.57,7.36-20.27.16-.42.88-.86,1.36-.9,4.19-.3,4.21-.28,5.63,3.67,2.08,5.78,4.13,11.57,6.23,17.49l.02.02Zm-12.76-8.85h4.89c-.8-2.59-1.55-5.06-2.41-7.85-.89,2.81-1.65,5.23-2.48,7.85Z"/>
      <path class="cls-1" d="m232.16,322.11h-4.63v-21.13h4.63v21.13Z"/>
      <path class="cls-1" d="m271.72,291.72c-.83-.49-1.63-1.04-2.5-1.44-.59-.27-1.28-.46-1.92-.45-.3,0-.9.7-.84.83.27.58.65,1.19,1.15,1.56.65.47,1.5.66,2.19,1.1,1.24.79,2.43,1.75,2.12,3.43-.34,1.83-1.26,3.17-3.36,3.48-3.12.46-5.69-1.41-5.76-4.52.73.04,1.44.09,2.16.13-.09.16-.18.31-.27.47.9.61,1.73,1.4,2.72,1.74.44.15,1.53-.48,1.72-.98.17-.45-.35-1.41-.84-1.79-1.07-.84-2.44-1.3-3.47-2.18-1.61-1.38-1.27-3.85.53-4.96,2.65-1.63,6.23-.03,6.81,3.04-.15.18-.3.37-.45.55h.01Z"/>
      <path class="cls-1" d="m282.37,290.44c.82.19,1.54.36,2.41.56-.61,2.71-1.14,5.4-1.82,8.05-.73,2.84-3.2,3.06-6.41,2.53-2.26-.37-3.45-2.56-2.97-4.92.51-2.52,1.07-5.04,1.66-7.8.87.19,1.67.37,2.54.56-.58,2.7-.95,5.28-1.73,7.72-.54,1.7.51,2.26,1.5,2.7,1.2.52,2.44.22,2.84-1.29.53-2,.97-4.03,1.45-6.05.16-.66.33-1.31.52-2.06h.01Z"/>
      <path class="cls-1" d="m311.23,299.18c2.49.76,4.76,1.46,7.03,2.16.05.01.08.09.19.23-.16.52-.35,1.1-.57,1.81-1.62-.47-3.2-.94-4.86-1.42-.29.87-.54,1.64-.85,2.58,1.45.46,2.86.92,4.37,1.4-.16.58-.32,1.16-.54,1.95-1.47-.41-2.89-.81-4.47-1.25-.26.79-.55,1.66-.87,2.63,1.72.54,3.31,1.04,5.05,1.58-.16.63-.32,1.25-.52,2.03-2.5-.77-4.92-1.51-7.61-2.33,1.21-3.76,2.4-7.49,3.65-11.38h0Z"/>
      <path class="cls-1" d="m337.89,308h-2.41c-.28-.48-.47-1.23-.85-1.34-.69-.2-1.49-.02-2.25,0,.1.6,0,1.41.35,1.76.77.78,1.71,1.47,2.71,1.94,2.45,1.17,2.73,3.92.5,5.61-2.82,2.13-7.07.31-7.58-3.3,1.11-.13,2.17-.41,2.78,1.07.2.47,1.16.91,1.74.87.63-.05,1.43-.55,1.74-1.09.17-.3-.36-1.23-.8-1.63-.99-.9-2.18-1.58-3.17-2.49-1.6-1.46-1.7-2.99.14-4.02,1.33-.75,3.22-.85,4.8-.67,1.46.17,2.12,1.58,2.31,3.28h0Z"/>
      <path class="cls-1" d="m296.26,298.11c-.78-.18-1.45-.33-2.02-.45-.38-.78-.65-1.56-1.1-2.21-.75-1.1-2.45-1.05-3.43-.14-1.64,1.52-2.12,3.38-1.73,5.48.33,1.81,2.53,2.93,3.7,1.74,1.29-1.31,2.24-.87,3.39-.12-1.28,2.13-4.7,3.18-6.94,2.14-2.39-1.11-3.45-4.23-2.48-7.37,1.04-3.37,3.65-5.06,6.87-4.44,2.53.48,3.91,2.4,3.74,5.36h0Z"/>
      <path class="cls-1" d="m304.57,305.25c.62.21,1.27.43,2.04.69-.57,1.72-1.89,2.52-3.43,2.81-1.93.36-3.7-.36-4.95-1.77-2.73-3.07-.99-9.08,2.91-10.43,3.69-1.27,7,1.3,6.78,5.41-.79-.17-1.56-.33-2.32-.49l.37-.43c-.78-.83-1.4-2.04-2.36-2.41-1.52-.59-2.71.43-3.53,1.77-1.18,1.94-1.21,4.1-.08,5.08,1.79,1.54,2.64,1.5,4.58-.22h-.01Z"/>
      <path class="cls-1" d="m318.09,310.57c.75.06,1.43.12,1.65.14.89.97,1.43,1.92,2.22,2.28.59.26,1.53-.25,2.31-.42-.18-.79-.12-1.79-.59-2.31-.69-.76-1.79-1.14-2.67-1.75-1.41-.98-1.99-2.33-1.31-3.96.7-1.68,2.15-2.26,3.87-2.06,2.63.3,3.8,1.43,4.13,3.96h-2.2c-.24-.44-.41-1.21-.78-1.32-.74-.22-1.58-.09-2.39-.11.23.67.27,1.54.72,1.97.76.71,2,.97,2.66,1.74.7.82,1.33,2.02,1.32,3.06,0,1.19-.77,2.09-2.25,2.57-3.51,1.11-6.26-.44-6.76-2.94-.05-.23.03-.48.06-.85h.01Z"/>
      <path class="cls-1" d="m83.17,293.1c-.17,2.62-.35,5.24-.53,7.99-.69.17-1.46.35-2.2.52-1.34-2.23-2.63-4.36-3.91-6.49-.11.04-.22.09-.33.13.53,2.24,1.07,4.47,1.64,6.88-.67.23-1.34.46-2.24.76-.87-3.88-1.7-7.65-2.57-11.52,1.06-.32,2.01-.61,3.09-.94,1.49,2.48,2.97,4.95,4.56,7.59.3-2.26.61-4.38.84-6.51.28-2.58.25-2.58,3.29-2.87.96,3.84,1.93,7.7,2.91,11.62-.73.19-1.39.36-2.33.61-.63-2.64-1.26-5.26-1.88-7.88-.12.03-.24.07-.36.1h.02Z"/>
      <path class="cls-1" d="m52.18,298.37c2.29-.5,4.39-1.19,6.54-1.36,2.4-.19,4.07,1.7,4.88,4.91.64,2.55-.16,4.73-2.34,5.78-1.68.81-3.48,1.37-5.35,2.09-1.23-3.79-2.41-7.4-3.71-11.41h-.02Zm5.29,8.54c3.6-1.02,4.36-2.21,3.43-5.08-.92-2.82-2.25-3.29-5.68-1.9.74,2.29,1.48,4.6,2.25,6.98h0Z"/>
      <path class="cls-1" d="m32.27,315.08c-1.03-.09-1.77-.15-2.62-.22-.24-.95-.49-1.9-.75-2.89-.73-.13-1.47-.24-2.2-.41-1.18-.27-2.09-.11-2.41,1.27-.28,1.19-1.23,1.28-2.03.84-.32-.18-.4-1.28-.19-1.8,1.12-2.77,2.44-5.46,3.56-8.23.73-1.82,2.06-.71,3.25-.96,1.12,4.12,2.22,8.15,3.38,12.41h.01Zm-3.92-5.48c-.34-1.43-.62-2.64-.97-4.11-.56,1.43-1.03,2.64-1.55,3.96.93.05,1.61.09,2.52.14h0Z"/>
      <path class="cls-1" d="m54.63,310.31c-.84.29-1.6.55-2.36.81-.66-.92-1.28-1.78-1.87-2.61-1.3.4-2.49.76-3.76,1.15v2.79c-.87.22-1.67.42-2.65.67.36-3.92.65-7.62,1.07-11.3.06-.5.67-1.21,1.14-1.32.56-.14,1.54.05,1.85.47,2.24,3.03,4.36,6.15,6.59,9.35h0Zm-5.48-3.62c-.7-1.13-1.36-2.2-2.23-3.61v4.23c.79-.22,1.44-.4,2.23-.62h0Z"/>
      <path class="cls-1" d="m74.29,303.35c-2.54.87-4.84,1.67-7.27,2.5-1.22-3.75-2.4-7.41-3.64-11.23,2.34-.79,4.64-1.57,7.11-2.42.22.65.42,1.26.64,1.92-1.67.59-3.18,1.12-4.82,1.7.31.91.59,1.72.88,2.55,1.39-.46,2.68-.89,4.11-1.36.25.56.51,1.15.83,1.86-1.45.49-2.8.95-4.33,1.46.27.91.53,1.78.82,2.75,1.7-.56,3.28-1.08,4.98-1.64.24.67.44,1.23.68,1.9h0Z"/>
      <path class="cls-1" d="m101.16,295.83c.69.16,1.4.34,2.13.51-1.06,2.78-3.16,4.12-5.65,3.62-3.01-.6-4.77-3.13-4.62-6.63.13-3,1.89-5.22,4.4-5.54,3.04-.39,4.94.9,5.92,4.15-1.19.05-2.22.58-3.05-1.06-.87-1.73-3.4-1.56-4.05.32-.52,1.49-.66,3.39-.22,4.88.75,2.5,3.29,2.33,5.13-.25h.01Z"/>
      <path class="cls-1" d="m42.35,305.19c-1.29.52-2.47,1.17-3.48-.63-.19-.34-1.99-.29-2.56.17-1.81,1.51-1.75,5.28-.12,7.02,1.47,1.57,2.45,1.55,3.72-.14.36-.48.53-1.11.82-1.75.7-.1,1.49-.22,2.35-.35-.25,2.38-1.08,4.15-3.33,4.8-1.92.55-3.74.32-5.3-1.09-1.73-1.57-2.46-5.34-1.47-7.75.89-2.18,2.91-3.35,5.48-3.19,1.72.11,2.8.91,3.88,2.9h0Z"/>
      <path class="cls-1" d="m91.83,299.71c-.78.12-1.51.24-2.44.38-.38-4.08-.76-8.04-1.15-12.13h2.46c.37,3.8.74,7.71,1.13,11.75Z"/>
      <path class="cls-2" d="m195.13,168.93c.63,1.04,1.23,1.83,1.62,2.71,5.43,12.38,20.07,14.21,30.03,7.39,9.27-6.35,12.85-15.33,11.9-26.41-.33-3.84-1.05-7.52-2.85-10.89-2.48-4.63-6.16-7.62-11.72-7.12-4.05.36-7.35,2.52-9.75,5.66-2.22,2.89-3.95,6.16-5.9,9.26-1.62,2.57-3.19,5.16-4.86,7.7-2.92,4.44-7.27,6.31-12.39,6.65-3.21.22-6.42.3-9.81.45.31.45.56.85.83,1.22,4.58,6.27,6.01,13.2,5.13,20.93-.52,4.56-1.45,8.84-3.74,12.74-4.77,8.13-12.27,12.1-21.37,12.98-17.28,1.67-29.63-6.61-38.79-20.34-7.2-10.79-9.53-22.99-8.95-35.82,0-.17.11-.33.34-1.01.41.93.69,1.47.89,2.03,2.02,5.76,3.54,11.76,6.14,17.25,5.03,10.6,13.13,17.9,25.01,20.15,7.2,1.37,14.27,1.01,20.75-2.9,4.54-2.74,7.21-7.11,7.62-12.1.7-8.42-3.72-15.01-13.2-15.9-2.87-.27-5.82.24-8.73.27-.6,0-1.57-.36-1.77-.82-2.39-5.54-4.66-11.12-6.96-16.7-.06-.16,0-.37.04-.74,1.62.14,3.23.2,4.81.43,6.27.91,12.16-.19,17.57-3.47,2.1-1.28,3.59-3.22,4.14-5.69.91-4.12-.99-7.39-5.1-8.7-4.03-1.28-8.13-1-12.21-.2-6.73,1.32-12.77,4.24-18.47,8.29-3.23-5.26-6.39-10.42-9.62-15.68.21-.24.41-.57.7-.78,9.7-6.84,20.35-10.88,32.36-10.72,11.76.15,21.45,9.26,22.22,20.97.5,7.66-4.16,19.36-13.63,23.45-.39.17-.75.41-1.32.73,2.01.8,3.83,1.47,5.6,2.25,7.2,3.19,11.99.27,15.47-4.43,2.65-3.59,4.74-7.6,6.98-11.48,2.24-3.89,4.08-8.04,7.5-11.12,5.65-5.1,12.3-6.82,19.7-5.44,13.21,2.46,20.61,11.27,24.46,23.39,3.8,12,3.23,23.99-1.89,35.56-3.28,7.4-8.32,13.36-15.88,16.66-14.59,6.35-28.45,0-32.79-16.27-1.15-4.31-1.11-10.78-.1-14.37v-.02Z"/>
      <path class="cls-2" d="m170.71,93.46c5.68,8.26,13.25,13.37,23.47,13.63,10.26.26,17.61-5.35,24.26-12.66,3.64,3.89,7.26,7.75,10.92,11.67-7.11,8.62-15.9,14.18-27.3,14.6-13.68.51-28.39-8.83-32.12-22.52-.57-2.08-.4-3.11.77-4.72Z"/>
      <path class="cls-2" d="m125.54,269.57c.18-1.13.34-2.13.52-3.33-1.37-.53-2.75-1.07-4.12-1.61v-2.2c16.23,5.04,32.73,7.35,49.61,6.85-.85-3.54-2.76-5.14-6.06-4.93-.23-.63-.48-1.31-.75-2.02,1.61-1.02,3.05-.95,4.14.46,1.23,1.59,2.34,3.29,3.34,5.04.62,1.08,1.22,1.65,2.6,1.59,3.36-.13,6.72-.04,10.08-.05,2.73-.01,2.73-.02,4.58,2.6-.68.03-1.28.06-1.92.09v13.85c-1.84-.58-3.27-1.52-2.64-4-3.74,2.03-5.94,1.85-7.88-.52-1.52-1.86-1.6-4.45-.19-6.1,1.67-1.95,4.2-1.87,7.75.3v-3.37h-11.26v13.87c-3.59-1.11-2.77-3.93-2.78-6.41h-4.12c-.93.86-1.49,1.8-2.22,1.95-1.23.26-2.92-1.58-3.14-3.08-.2-1.35.3-1.94,2.21-2.52v-3.93c-1.56-.14-3.1-.29-4.74-.44-.55,4.45-1.1,8.83-1.65,13.28-1.7-.94-2.47-2.54-2.32-4.8-.36.14-.65.27-.95.37-3,1.03-4.95.1-6.34-2.74-.52-1.07-1.37-2.06-2.29-2.83-1.06-.9-2.4-1.19-3.66-.22-1.26.97-1.82,2.29-1.44,3.85.22.91.75,1.74,1,2.64.12.42-.09.94-.4,1.39-1.56-2.31-3.24-4.43-3.06-7.3.14-2.34,1.59-4,3.88-3.62,1.77.29,3.55,1.17,5.06,2.19.91.61,1.61.8,2.3.22.6-.5,1.02-1.32,1.27-2.08.08-.24-.55-1.02-.94-1.09-4.27-.82-8.56-1.54-13.07-2.34-.77,4.54-1.54,9.13-2.32,13.74-4.22-1.64-1.75-4.8-1.85-7.2-1.48-.6-2.82-1.15-4.16-1.7.05-.15.1-.3.16-.45-.83.38-1.66.76-2.58,1.19.77,1.7,1.55,3.42,2.37,5.24-.44.32-.88.65-1.43,1.05-.25-.62-.44-1.14-.66-1.65-.81-1.84-1.64-3.67-2.46-5.51-1.14-2.52-.34-3.73,2.51-3.71h.02Zm23.08,7.37c1.08,1.57,1.96,1.8,3.98,1.07,2.52-.91,3.31-2.57,2.98-6.34-.9-.13-1.82-.28-2.75-.4-.3-.04-.61,0-.95,0,1.14,3.44.38,4.73-3.26,5.68h0Zm33.01-.77c-2.03-.01-3.34,1.18-3.31,2.74.03,1.42.97,2.01,2.22,2.1,1.73.13,4.35-1.62,4.12-2.81-.34-1.81-2.02-1.71-3.03-2.03Zm-11.03.66v-4.69h-4.58v4.69h4.58Zm-37.56-8.81c-1.66-.44-3.19-.85-4.75-1.26,0,1.53-.52,3.31.15,4.29.64.94,2.49,1.05,3.93,1.56.24-1.69.45-3.1.66-4.59h.01Z"/>
      <path class="cls-2" d="m196.79,274.82c.54-.24.94-.42,1.45-.64.44.81.82,1.6,1.28,2.34.4.64.76,1.46,1.36,1.77.7.37,1.64.28,2.48.39-.12-.85-.09-1.76-.4-2.54-.34-.85-.99-1.57-1.67-2.61,2.74-.22,5-.4,7.31-.59v-1.28c-3.34,0-6.57-.2-9.76.07-1.97.17-2.94-.43-3.46-2.36,13.43-.63,26.72-2.05,39.85-4.95-1.34-3.05-2.76-3.81-6.06-3.29-.28-.6-.57-1.22-.86-1.84,2.08-1.13,3.57-.97,5.09.67.73.78,1.36,1.67,1.93,2.58.6.95,1.03,1.67,2.5,1.27.61-.17,1.6,1.01,2.72,1.8-1.25.39-2.01.63-3.12.99,1.52,4.44,3.04,8.85,4.53,13.17-4.76-.72-4.32-5.37-6.06-8.62-.8.26-1.59.43-2.32.76-1.98.89-2.56,2.17-1.67,4.12.51,1.12,1.44,2.04,2.13,3.08.25.38.35.85.52,1.28-.25.15-.5.3-.75.46-1.43-1.78-3.17-3.39-4.21-5.37-1.58-3,.06-5.57,3.44-5.92.81-.08,1.64-.01,2.76-.01-.18-.84-.37-1.68-.54-2.47-3.5.73-6.8,1.41-10.15,2.11.3,2.09.56,4.22.92,6.33.35,2.09.8,4.17,1.22,6.34-1.94-.63-3.64-1.32-3.4-3.32-1.72.33-3.64,1.3-5.08.83-1.82-.6-3.25-2.39-5.13-3.89,2.27-1.31,4.03-2.44,2.76-5.13-1.54.1-3.16.2-5.03.32.44,4.63.88,9.13,1.33,13.84-2.06-.95-3.62-1.84-3.31-4.42.17-1.47-.23-3.01-.38-4.56-1.34.11-2.58.22-3.88.33.4,1.01.89,1.97,1.17,2.99.4,1.46-.38,2.49-1.9,2.63-1.87.16-3.34-.68-4.44-2.1-1.08-1.4-2.01-2.91-3.15-4.58l-.02.02Zm21.53-4.68c1.84,3.18,1.59,4.24-1.45,6.58,1.33,1.81,2.71.77,3.98,0,2.65-1.63,2.92-3.2,1.3-7.08-1.21.16-2.45.33-3.82.51h0Z"/>
      <path class="cls-2" d="m194.85,80.97c3.94,4.03,7.66,7.83,11.35,11.61-3.87,3.8-7.82,7.69-11.81,11.61-3.58-3.63-7.39-7.5-11.07-11.22,3.72-3.88,7.52-7.84,11.53-12.01h0Z"/>
    </g>
  </g>
</svg>